<svg version="1.2" xmlns="http://www.w3.org/2000/svg" viewBox="0 0 13 13" width="13" height="13">
	<title>grid-squares-add-svgrepo-com-svg</title>
	<style>
		.s0 { fill: none;stroke: #000000;stroke-linecap: round;stroke-linejoin: round } 
	</style>
	<g id="Layer">
		<path id="Layer" class="s0" d="m4.5 1.5h-2c-0.6 0-1 0.5-1 1v2c0 0.5 0.4 0.9 0.9 1h0.1 2c0.6 0 1-0.5 1-1v-2c0-0.5-0.4-0.9-0.9-1zm6 0h-2c-0.5 0-1 0.5-1 1v2c0 0.5 0.4 0.9 0.9 1h0.1 2c0.6 0 1-0.4 1-1v-2c0-0.5-0.4-0.9-0.9-1zm-6 6h-2c-0.5 0-1 0.5-1 1v2c0 0.5 0.4 0.9 0.9 1h0.1 2c0.6 0 1-0.4 1-1v-2c0-0.5-0.4-0.9-0.8-1z"/>
		<path id="Layer" class="s0" d="m9.5 7.5v4"/>
		<path id="Layer" class="s0" d="m11.5 9.5h-4"/>
	</g>
</svg>